<?xml version="1.0" encoding="UTF-8"?>
<svg width="30px" height="30px" viewBox="0 0 30 30" version="1.1" xmlns="http://www.w3.org/2000/svg" xmlns:xlink="http://www.w3.org/1999/xlink">
    <!-- Generator: Sketch 40.3 (33839) - http://www.bohemiancoding.com/sketch -->
    <title>Instagram</title>
    <desc>Created with Sketch.</desc>
    <defs></defs>
    <g id="Home" stroke="none" stroke-width="1" fill="none" fill-rule="evenodd">
        <g id="Tablet" transform="translate(-75.000000, -1546.000000)" fill="#FFFFFF">
            <g id="Group-6" transform="translate(0.000000, 1511.000000)">
                <g id="Instagram" transform="translate(75.000000, 35.000000)">
                    <path d="M14.9881579,0 C6.71052632,0 4.4408921e-14,6.71052632 4.4408921e-14,14.9881579 C4.4408921e-14,23.2618421 6.71052632,29.9723684 14.9881579,29.9723684 C23.2618421,29.9723684 29.9723684,23.2618421 29.9723684,14.9881579 C29.9723684,6.71052632 23.2618421,0 14.9881579,0 L14.9881579,0 Z M22.6736842,20.4671053 C22.6736842,21.4144737 21.8289474,22.0539474 20.8815789,22.0539474 L9.84868421,22.0539474 C8.89736842,22.0539474 8.06842105,21.4144737 8.06842105,20.4671053 L8.06842105,9.42631579 C8.06842105,8.47894737 8.89736842,7.84342105 9.84868421,7.84342105 L20.8815789,7.84342105 C21.8289474,7.84342105 22.6736842,8.47894737 22.6736842,9.42631579 L22.6736842,20.4671053 L22.6736842,20.4671053 Z" id="Instagram-Circle"></path>
                    <path d="M12.6,14.9644737 C12.6,13.4289474 13.8434211,12.1855263 15.3789474,12.1855263 C16.9184211,12.1855263 18.1657895,13.4289474 18.1657895,14.9644737 C18.1657895,16.4960526 16.9184211,17.7394737 15.3789474,17.7394737 C13.8434211,17.7394737 12.6,16.4960526 12.6,14.9644737 Z M20.7,11.3368421 C20.7,11.5875 20.4967105,11.7907895 20.2460526,11.7907895 L18.7855263,11.7907895 C18.5348684,11.7907895 18.3315789,11.5875 18.3315789,11.3368421 L18.3315789,9.87631579 C18.3315789,9.62565789 18.5348684,9.42236842 18.7855263,9.42236842 L20.2460526,9.42236842 C20.4967105,9.42236842 20.7,9.62565789 20.7,9.87631579 L20.7,11.3368421 Z M19.4328947,13.7644737 L21.0947368,13.7644737 L21.0947368,20.3723684 C21.0947368,20.625 21.0394737,20.8697368 20.7907895,20.8697368 L9.93552632,20.8697368 C9.68684211,20.8697368 9.64736842,20.625 9.64736842,20.3723684 L9.64736842,13.7644737 L11.2934211,13.7644737 C11.0565789,13.7644737 10.9776316,14.6486842 10.9776316,15.0513158 C10.9776316,17.4710526 12.9552632,19.4013158 15.3789474,19.4013158 C17.8105263,19.4013158 19.7842105,17.4927632 19.7842105,15.0730263 C19.7842105,14.6703947 19.725,13.7644737 19.4328947,13.7644737 Z"></path>
                </g>
            </g>
        </g>
    </g>
</svg>
