<?xml version="1.0" encoding="UTF-8"?>
<svg width="30px" height="30px" viewBox="0 0 30 30" version="1.1" xmlns="http://www.w3.org/2000/svg" xmlns:xlink="http://www.w3.org/1999/xlink">
    <!-- Generator: Sketch 40.3 (33839) - http://www.bohemiancoding.com/sketch -->
    <title>Twitter</title>
    <desc>Created with Sketch.</desc>
    <defs></defs>
    <g id="Home" stroke="none" stroke-width="1" fill="none" fill-rule="evenodd">
        <g id="Tablet" transform="translate(-30.000000, -1546.000000)" fill="#FFFFFF">
            <g id="Group-6" transform="translate(0.000000, 1511.000000)">
                <path d="M45.0019755,35 C36.7167128,35 30,41.7167128 30,50.0019755 C30,58.2832872 36.7167128,65 45.0019755,65 C53.2832872,65 60,58.2832872 60,50.0019755 C60,41.7167128 53.2832872,35 45.0019755,35 L45.0019755,35 Z M50.7032793,46.8214145 C50.7072303,46.9557487 50.7111814,47.090083 50.7111814,47.2244172 C50.7111814,51.337416 47.6570525,56.0825761 42.0742789,56.0825761 C40.3595417,56.0825761 38.7633347,55.5649941 37.4199921,54.6839194 C37.6570525,54.7115765 37.898064,54.7273805 38.1430265,54.7273805 C39.5653892,54.7273805 40.8771237,54.2295535 41.9162386,53.395891 C40.5847491,53.3682339 39.466614,52.4713552 39.0794153,51.2346898 C39.2651126,51.2702489 39.454761,51.290004 39.6483603,51.290004 C39.9288819,51.290004 40.2291584,51.2504939 40.4820229,51.1793757 C39.0912683,50.8949032 38.0758593,49.6345318 38.0758593,48.1252469 L38.0758593,48.0896879 C38.4709601,48.3188463 38.925326,48.4610826 39.4231529,48.4768866 C38.6052944,47.9197945 38.0561043,46.9636507 38.0561043,45.8850257 C38.0561043,45.3160806 38.1983406,44.7787436 38.4591071,44.3204267 C39.9565389,46.2050573 42.1888582,47.4417226 44.713552,47.5721059 C44.6582379,47.3429475 44.6325563,47.105887 44.6325563,46.8648755 C44.6325563,45.1461873 45.9905176,43.7514816 47.6661399,43.7514816 C48.5393125,43.7514816 49.3287238,44.1268273 49.8818649,44.7313315 C50.5732912,44.5930462 51.2212564,44.3362307 51.8099565,43.9766891 C51.5847491,44.7036744 51.1023311,45.3160806 50.4741209,45.6993283 C51.0904781,45.6242592 51.6752272,45.4583169 52.2165152,45.2094034 C51.8135124,45.8336626 51.2959305,46.3828526 50.7032793,46.8214145 L50.7032793,46.8214145 Z" id="Twitter"></path>
            </g>
        </g>
    </g>
</svg>
